HIERARCHY
ROOT RootJoint
{
    OFFSET   0.000000   0.000000   0.000000
    CHANNELS 6 Xposition Yposition Zposition Xrotation Yrotation Zrotation
    JOINT pelvis_lowerback
    {
        OFFSET   0.000000   0.093605   0.000000
        CHANNELS 3 Xrotation Yrotation Zrotation
        JOINT lowerback_torso
        {
            OFFSET   0.000000   0.100000   0.000000
            CHANNELS 3 Xrotation Yrotation Zrotation
            JOINT torso_head
            {
                OFFSET   0.000000   0.282350   0.000000
                CHANNELS 3 Xrotation Yrotation Zrotation
                End Site
                {
                    OFFSET   0.000000   0.192650   0.000000
                }
            }
            JOINT rTorso_Clavicle
            {
                OFFSET  -0.001000   0.157500   0.000000
                CHANNELS 3 Xrotation Yrotation Zrotation
                JOINT rShoulder
                {
                    OFFSET  -0.117647   0.000000   0.000000
                    CHANNELS 3 Xrotation Yrotation Zrotation
                    JOINT rElbow
                    {
                        OFFSET  -0.245000   0.000000   0.000000
                        CHANNELS 3 Xrotation Yrotation Zrotation
                        JOINT rWrist
                        {
                            OFFSET  -0.240000   0.000000   0.000000
                            CHANNELS 3 Xrotation Yrotation Zrotation
                            End Site
                            {
                                OFFSET  -0.116353  -0.002500   0.000000
                            }
                        }
                    }
                }
            }
            JOINT lTorso_Clavicle
            {
                OFFSET   0.001000   0.157500   0.000000
                CHANNELS 3 Xrotation Yrotation Zrotation
                JOINT lShoulder
                {
                    OFFSET   0.117647   0.000000   0.000000
                    CHANNELS 3 Xrotation Yrotation Zrotation
                    JOINT lElbow
                    {
                        OFFSET   0.245000   0.000000   0.000000
                        CHANNELS 3 Xrotation Yrotation Zrotation
                        JOINT lWrist
                        {
                            OFFSET   0.240000   0.000000   0.000000
                            CHANNELS 3 Xrotation Yrotation Zrotation
                            End Site
                            {
                                OFFSET   0.116353  -0.002500   0.000000
                            }
                        }
                    }
                }
            }
        }
    }
    JOINT rHip
    {
        OFFSET  -0.100000  -0.051395   0.000000
        CHANNELS 3 Xrotation Yrotation Zrotation
        JOINT rKnee
        {
            OFFSET   0.000000  -0.410000   0.000000
            CHANNELS 3 Xrotation Yrotation Zrotation
            JOINT rAnkle
            {
                OFFSET   0.000000  -0.390000   0.000000
                CHANNELS 3 Xrotation Yrotation Zrotation
                JOINT rToeJoint
                {
                    OFFSET   0.000000  -0.050000   0.130000
                    CHANNELS 3 Xrotation Yrotation Zrotation
                    End Site
                    {
                        OFFSET  -0.010000   0.002000   0.060000
                    }
                }
            }
        }
    }
    JOINT lHip
    {
        OFFSET   0.100000  -0.051395   0.000000
        CHANNELS 3 Xrotation Yrotation Zrotation
        JOINT lKnee
        {
            OFFSET   0.000000  -0.410000   0.000000
            CHANNELS 3 Xrotation Yrotation Zrotation
            JOINT lAnkle
            {
                OFFSET   0.000000  -0.390000   0.000000
                CHANNELS 3 Xrotation Yrotation Zrotation
                JOINT lToeJoint
                {
                    OFFSET   0.000000  -0.050000   0.130000
                    CHANNELS 3 Xrotation Yrotation Zrotation
                    End Site
                    {
                        OFFSET   0.010000   0.002000   0.060000
                    }
                }
            }
        }
    }
}
MOTION
Frames: 11
Frame Time:   0.008333
 -0.576302   0.838535   6.545831 171.861395  62.950853 174.371172  12.055457  -2.912939   4.800825  -1.041283  -0.248784   3.304258  -4.817273   4.755536  -2.171679   8.115058 -13.839682   5.286344  17.034289  -3.108059  47.862674  -0.012230  79.844256   0.011323  -1.387755   4.651953 -10.440929   2.611806   8.396966  -4.947644   7.448485  -4.742414 -53.822533 -179.992161 -69.737704 -179.991976  -0.395331  -6.551248   8.960049 -23.734868   1.042681  -1.492119  39.498348   0.003555  -0.025251 -16.880176  -8.551630   6.585469  -0.627110  -0.006171   0.013399  -7.991157  -1.554599   0.634648  61.787383   0.015487   0.025374 -10.495554   1.852450   9.955896 -32.338027   0.001921   0.000699
 -0.563699   0.835477   6.541261 172.384980  62.571003 174.222217  12.116941  -2.879366   4.709269  -0.855066  -0.323831   3.357807  -4.984194   4.557877  -2.232764   8.163603 -13.586786   5.564327  16.503617  -3.095273  47.628732  -0.011859  79.707145   0.011186  -1.391401   4.338873 -10.546966   2.717503   8.297007  -5.114278   7.608558  -4.558620 -53.777378 -179.998901 -70.692970 -179.999431  -0.316617  -7.447380   9.060892 -23.487716   1.066755  -1.467972  39.852618   0.002053  -0.018797 -18.444408  -8.420078   6.189110  -0.290654  -0.005237   0.012620  -8.977927  -1.103351   0.563186  65.218371   0.030054   0.038317 -11.035269   1.910029   9.594611 -29.605242   0.009905   0.019319
 -0.551312   0.831787   6.536626 173.024191  62.135054 174.013291  12.248596  -2.751609   4.615287  -0.624559  -0.315432   3.387415  -5.137862   4.366231  -2.283622   8.110560 -13.253393   5.820746  15.922831  -3.025258  47.385247  -0.012222  79.592396   0.011877  -1.384610   4.086877 -10.701188   2.884907   8.199051  -5.336882   7.825478  -4.355962 -53.730050 179.991055 -71.707920 179.990589  -0.326004  -7.733597   9.049869 -23.022531   1.114152  -1.576187  40.351596   0.001013  -0.013050 -19.911762  -8.293742   5.818370  -0.072165  -0.004158   0.011271 -10.142901  -0.608744   0.507488  68.656813   0.045023   0.049527 -11.562272   1.969791   9.258383 -27.295040   0.015971   0.033336
 -0.538987   0.827477   6.531954 173.681473  61.665999 173.802065  12.392602  -2.535789   4.526616  -0.381052  -0.216333   3.405431  -5.273336   4.187630  -2.328693   8.010404 -12.885087   6.050539  15.339129  -2.923005  47.146975  -0.012690  79.498184   0.012673  -1.364203   3.918481 -10.845631   3.086303   8.132252  -5.577245   8.068642  -4.149333 -53.695191 179.977306 -72.684452 179.977389  -0.372406  -7.761622   8.977627 -22.389927   1.168715  -1.753295  40.896681   0.000483  -0.008253 -21.277467  -8.169946   5.474522   0.128940  -0.003185   0.010063 -11.421266  -0.136220   0.482897  71.888034   0.056942   0.056593 -12.055079   2.029854   8.945419 -25.194037   0.020691   0.043569
 -0.527118   0.824156   6.526913 174.391007  61.389191 173.256541  12.639765  -2.139211   4.695204  -0.130013   0.035408   3.506580  -5.403766   4.026889  -2.367388   7.829032 -12.429673   6.279492  14.721777  -2.777058  46.888869  -0.014154  79.394227   0.014418  -1.348181   3.725608 -11.008872   3.315732   8.080117  -5.952741   8.331215  -3.951828 -53.719740 179.964078 -73.634858 179.965635  -0.440852  -7.605811   8.872795 -21.778559   1.086948  -1.836709  42.528760   0.000395  -0.004594 -23.062624  -8.280387   5.320352   0.349270  -0.002276   0.008092 -12.760755   0.268845   0.701595  74.791361   0.061267   0.055434 -12.515471   2.091734   8.655042 -23.246747   0.024122   0.047310
 -0.515443   0.821247   6.521663 175.044785  61.214982 172.749940  12.865114  -1.682084   4.816053   0.124553   0.362694   3.625619  -5.515588   3.877783  -2.389626   7.625821 -11.954390   6.507636  14.120599  -2.596249  46.667197  -0.014530  79.315890   0.014947  -1.319882   3.612217 -11.084612   3.562024   8.063578  -6.296796   8.604736  -3.750412 -53.744474 179.951944 -74.526294 179.954649  -0.519060  -7.388059   8.766189 -21.019923   0.990752  -1.919261  43.760296   0.000081  -0.003266 -24.664467  -8.255713   5.163758   0.533991  -0.001580   0.006556 -14.188154   0.636377   0.886783  77.437590   0.061354   0.050406 -12.948967   2.152213   8.385766 -21.463933   0.026377   0.047155
 -0.503894   0.818492   6.516266 175.644223  61.051107 172.304884  13.071599  -1.214098   4.898801   0.368594   0.716386   3.735450  -5.615561   3.738561  -2.409373   7.419014 -11.487433   6.725292  13.547659  -2.403771  46.471943  -0.014092  79.256528   0.014589  -1.279737   3.574575 -11.104319   3.807783   8.071159  -6.595260   8.874004  -3.547290 -53.758109 179.940678 -75.357678 179.944156  -0.597302  -7.159587   8.680534 -20.160697   0.965139  -2.017570  44.744774   0.000325  -0.001931 -26.198973  -8.144204   4.996227   0.695484  -0.001014   0.005525 -15.678705   0.968539   1.034711  79.874355   0.059824   0.044545 -13.356510   2.210708   8.135824 -19.836606   0.027750   0.045482
 -0.493083   0.815684   6.511169 176.050702  60.907076 172.098966  13.381195  -0.839038   4.921657   0.576780   0.942338   3.798583  -5.833239   3.542895  -2.347940   7.067572 -10.816907   6.919345  12.549951  -1.946294  46.129975  -0.006448  79.396303   0.006343  -1.332548   3.119914 -11.039477   4.066989   8.014376  -6.789442   9.519509  -3.152380 -53.650002 179.932381 -77.070490 179.935370  -0.541488  -7.776884   8.908202 -19.438834   0.898625  -2.191403  45.695898   0.000211  -0.001403 -27.651984  -8.082143   4.777015   0.809602  -0.000592   0.004494 -17.637409   1.586120   1.258900  82.296126   0.063788   0.042871 -14.396107   2.700344   8.041053 -18.328914   0.026429   0.053420
 -0.482513   0.812734   6.506090 176.544005  60.744015 171.834642  13.779075  -0.441979   4.924812   0.822184   1.209502   3.830036  -6.036854   3.345738  -2.279933   6.607124 -10.076682   7.048055  11.505135  -1.438624  45.776159   0.001498  79.572793  -0.002409  -1.343092   2.888701 -11.076736   4.371976   7.950188  -6.979154  10.185425  -2.748179 -53.524113 179.923001 -78.782654 179.926090  -0.562573  -7.811984   9.020097 -18.642536   0.849947  -2.389996  46.582914   0.000323  -0.000867 -29.088049  -8.007453   4.567546   0.913492  -0.000274   0.003698 -19.739690   2.204757   1.513977  84.527589   0.066256   0.040724 -15.377697   3.162918   7.962611 -17.002804   0.025643   0.058076
 -0.471979   0.809589   6.500965 177.110174  60.545522 171.511070  14.210641  -0.004444   4.913819   1.097323   1.525982   3.837830  -6.215781   3.158748  -2.214070   6.117401  -9.329746   7.134553  10.480702  -0.926124  45.428179   0.009072  79.758190  -0.010821  -1.323632   2.806881 -11.167392   4.687832   7.900302  -7.163697  10.834687  -2.356242 -53.407371 179.904088 -80.406685 179.908260  -0.614947  -7.616741   9.059272 -17.760518   0.821411  -2.597525  47.414479   0.000680  -0.000185 -30.533963  -7.913632   4.372739   1.008774  -0.000041   0.003112 -21.909987   2.773169   1.791961  86.555067   0.066751   0.037974 -16.297148   3.595778   7.898105 -15.794635   0.025115   0.060309
 -0.461387   0.806226   6.495742 177.736348  60.343085 171.136498  14.648558   0.477067   4.885947   1.387767   1.888717   3.823698  -6.373718   2.984615  -2.152486   5.627338  -8.598347   7.193158   9.498665  -0.423524  45.093873   0.015781  79.942261  -0.018274  -1.287911   2.804981 -11.275237   5.006865   7.874369  -7.341620  11.460560  -1.974837 -53.302326 179.873009 -81.932245 179.878950  -0.677555  -7.344907   9.085599 -16.812180   0.775529  -2.810686  48.213279   0.000933   0.000231 -31.977271  -7.840116   4.198335   1.095439   0.000116   0.002603 -24.097146   3.292824   2.087890  88.392115   0.065296   0.034714 -17.158075   4.000672   7.845382 -14.690779   0.024552   0.060449
